<?xml version="1.0" standalone="no"?>
<!DOCTYPE svg PUBLIC "-//W3C//DTD SVG 20010904//EN"
 "http://www.w3.org/TR/2001/REC-SVG-20010904/DTD/svg10.dtd">
<svg version="1.0" xmlns="http://www.w3.org/2000/svg"
 width="344.000000pt" height="344.000000pt" viewBox="0 0 344.000000 344.000000"
 preserveAspectRatio="xMidYMid meet">
<metadata>
Created by potrace 1.11, written by Peter Selinger 2001-2013
</metadata>
<g transform="translate(0.000000,344.000000) scale(0.100000,-0.100000)"
fill="#000000" stroke="none">
<path d="M1670 3437 c-3 -3 -30 -8 -61 -11 -65 -8 -74 -9 -151 -30 -229 -62
-412 -206 -493 -391 -14 -30 -34 -91 -46 -137 -30 -114 -32 -340 -3 -560 3
-30 1 -38 -11 -38 -41 0 -69 -193 -50 -337 12 -91 81 -239 122 -262 8 -4 25
-48 38 -97 34 -131 80 -251 128 -336 47 -81 46 -73 32 -248 -4 -47 -8 -99 -9
-115 -1 -17 -5 -35 -9 -41 -9 -15 -228 -105 -324 -134 -40 -12 -73 -25 -72
-28 0 -4 50 -47 111 -97 61 -49 181 -148 267 -218 86 -71 198 -163 249 -205
l93 -75 232 -1 c128 -1 241 3 252 8 17 8 98 70 180 138 11 9 119 96 240 193
121 96 237 190 259 207 l39 32 -34 15 c-19 8 -103 47 -186 88 l-153 73 -1 38
c-1 49 -8 184 -13 245 -3 40 5 69 44 165 41 104 104 303 112 357 2 11 10 27
18 35 48 47 93 168 116 310 9 59 15 186 10 214 -4 18 -15 44 -26 56 -17 19
-22 21 -36 9 -15 -12 -16 -8 -10 46 19 197 25 399 15 460 -4 22 -10 56 -13 75
-45 282 -273 500 -597 571 -86 19 -249 35 -259 26z"/>
</g>
</svg>
