<?xml version="1.0" encoding="utf-8"?>
<!-- Generator: Adobe Illustrator 16.0.0, SVG Export Plug-In . SVG Version: 6.00 Build 0)  -->
<!DOCTYPE svg PUBLIC "-//W3C//DTD SVG 1.1//EN" "http://www.w3.org/Graphics/SVG/1.1/DTD/svg11.dtd">
<svg version="1.1" xmlns="http://www.w3.org/2000/svg" xmlns:xlink="http://www.w3.org/1999/xlink" x="0px" y="0px"
	 width="608.971px" height="979.035px" viewBox="0 0 608.971 979.035" enable-background="new 0 0 608.971 979.035"
	 xml:space="preserve">
<g id="Livello_9">
</g>
<g id="Livello_13">
</g>
<g id="Livello_12">
</g>
<g id="Livello_6">
	<path d="M305.716,921.352"/>
</g>
<g id="Livello_4">
	<linearGradient id="SVGID_1_" gradientUnits="userSpaceOnUse" x1="303.1699" y1="42.7773" x2="303.1699" y2="879.8423">
		<stop  offset="0" style="stop-color:#FCC79B"/>
		<stop  offset="1" style="stop-color:#FAB185"/>
	</linearGradient>
	<path fill="url(#SVGID_1_)" d="M571.603,385.319l-7.827,9.599l-11.231,27.387l-1.895-26.405l2.794-69.138l3.617-64.669
		l-3.716-60.429l-1.763-20.357l-14.385-28.248l-17.528-30.281l-22.139-26.38l-24.953-19.002l-27.403-16.915l-28.172-9.692
		l-19.778-3.888c0,0-0.904-6.463-2.768-3.208c-24.635,43.044-113.617,63.475-113.617,63.475
		c0.066-8.267,26.744-45.748,15.852-38.159c-19.586,13.646-86.161,29.579-86.161,29.579l1.244-48.038l-47.416,15.922l-38.472,19.617
		l-39.851,33.995l-19.131,28.808L52.88,181.598l-1.917,43.608l1.908,76.256l3.594,66.386l-1.443,40.307L36.274,383.76l-7.824,15.979
		c0,0-19.433,34.961,7.824,134.945c2.273,8.338,19.021,29.188,19.021,29.188l12.225,12.584l5.164,14.078l22.276,75.883
		l17.931,38.273l25.204,43.5l21.13,30.969c0,0,61.79,107.572,149.267,100.334c103.427-8.557,167.814-121.547,167.814-121.547
		l21.224-49.226l17.33-40.528l16.123-46.727l5.119-33.604l11.44-19.681l19.917-41.77l12.735-50.217l4.407-37.281l-0.07-29.75
		L571.603,385.319z"/>
	<path fill="#EAA97D" d="M131.841,743.562l-7.802,105.947c0,0,31.703,86.35,184.453,92.186
		c152.751,5.837,182.775-75.848,182.775-75.848l-8.341-126.709L301.99,827.34L131.841,743.562z"/>
	<path fill="#FFFFFF" d="M104.502,411.283l12.458-27.16l23.406-4.044l45.689-1.017l23.911,5.061l27.465,20.706
		c0,0-14.899,16.524-66.015,12.586c-33.866-2.609-56.284-1.997-56.284-1.997L104.502,411.283z"/>
</g>
<g id="Livello_7">
	<path fill="#EAA97D" d="M243.296,583.496l13.088-7.041c0,0,26.555,22.548,40.806,22.426c14.252-0.12,26.468-1.287,26.468-1.287
		l17.443-7.693l16.221-13.445h16.089l-36.955,29.107l-42.73,1.167l-28.182-7.843l-11.083-11.219L243.296,583.496z"/>
	<path fill="#EAA97D" d="M42.516,391.882c0,0,7.989,42.606-2.987,67.033c0,0-18.159-23.788-16.426-34.231
		c2.134-12.86-1.074,10.788-1.074,10.788l-0.021,19.888l2.924,27.118l4.027,23.381l6.09,22.778l12.297,24.384l22.079,17.323
		l3.26,20.189c0,0-2.747-17.597-3.26-20.189c-0.515-2.594-10.249-44.479-10.249-44.479l-7.496-38.738l3.77-38.747l1.024-37.098
		l-6.818-12.288L42.516,391.882z"/>
	<path fill="#EAA97D" d="M560.497,422.456c-1.533,7.974,2.355,38.854,2.355,38.854s8.77-45.506,21.75-40.548l-2.039,34.599
		l-3.864,31.227l-9.937,35.599l-6.924,19.9l-5.188,17.188l-17.567,17.182l3.541-13.553l3.826-28.073l6.193-29.558l-0.729-26.465
		l0.01-31.023l-5.097-35.723l15.012-19.471l9.764-7.271l2.712,5.001C574.314,390.32,563.077,409.03,560.497,422.456z"/>
	<path fill="#EAA97D" d="M452.454,709.942c0,0,14.326-20.529,16.449-28.474c8.292-31.013,36.869-97.495,52.966-113.748
		c25.358-25.602,12.229-119.937,12.229-119.937l23.501,57.802l-21.496,82.275l-21.242,80.33l-25.558,58.043l-30.399,7.048
		L452.454,709.942z"/>
	<path fill="#DE9A6C" d="M237.432,689.463c0,0,32.815,5.285,74.157,3.75c24.357-0.906,66.979-5.13,66.979-5.13l-2.202,9.063
		l16.037,23.688l-82.533-6.226l-78.735,16.381l16.621-29.01L237.432,689.463z"/>
	<g>
		<path fill="#EAA97D" d="M551.044,398.995l-2.188-34.472l3.265-60.359l-1.187-114.242l-7.702-28.082
			c0,0-34.045-80.487-121.751-111.051l-24.589-6.6l-1.965-3.826l-3.752,16.51c0,0,109.272,15.058,134.347,119.851
			c0,0,28.45,120.497,3.079,137.348c-10.631,7.061-32.003,4.807-32.003,4.807l-120.876,39.893v-4.884l-21.107,2.469l-0.77-6.359
			c0,0-11.303,24.895-10.459,34.125c0.595,6.512,8.104,30.706,8.104,30.706l5.434-5.666l11.686,6.184l0.096-9.262l0.578-0.879
			c3.801-5.419,27.265-33.822,96.488-25.128l15.701,2.035l16.496,18.708l15.297,16.594c0,0,27.839-9.029,27.839,113.105
			c0,11.922,7.238-5.55,7.238-5.55l0,0l8.309-38.049l-1.044-5.327l-1.106-18.73L551.044,398.995z"/>
		<path fill="#EAA97D" d="M262.393,353.241l-6.442,5.612l-21.075-10.457l2.798,7.567l-120.072-43.729c0,0-37.233,7.595-40.14-4.472
			c-20.936-86.915,3.275-137.451,9.607-152.868c24.561-59.797,120.971-98.59,120.971-98.59l-15.386,58.218
			c0,0,68.648-2.162,94.528-34.319c13.631-16.938,21.112-20.92,12.87-13.628c-11.123,9.841-89.521,32.013-89.521,32.013
			l7.873-47.799l-42.558,11.32c-84.466,26.368-108.94,86.782-108.94,86.782l-15.021,69.552l1.832,95.274l-0.94,52.678l-0.892,42.769
			l-2.908,53.381l-0.777,17.057l2.59,21.651l1.567,20.933l2.79,8.055l6.591,33.987l17.874,56.387l18.478,44.765l30.289,60.333
			l43.3,65.021l16.234-16.264l-5.006-63.276l-6.452,6.152l-38.635-91.943c0,0-29.773-50.648-47.046-70.871
			c-11.588-13.568-20.622-67.102-19.423-78.967c4.601-45.521,27.985-66.4,27.985-66.4l14.359-22.341l13.283-2.421l15.7-2.034
			c76.412-9.596,97.067,26.007,97.067,26.007l3.601,11.824l12.393-8.747l6.136,5.963c0,0,7.428-19.152,7.766-37.336
			C269.805,371.153,262.393,353.241,262.393,353.241z"/>
	</g>
	<path fill="#EAA97D" d="M282.09,102.589l-12.451,13.771c0,0,69.553-17.691,84.206-23.75c63.969-26.451,52.444-46.264,52.444-46.264
		l-12.261,0.123c0,0,13.26,17.233-73.675,43.482C313.247,92.098,282.09,102.589,282.09,102.589z"/>
	<path fill="#EAA97D" d="M146.544,437.712c0,0,49.584-10.939,71.858-4.946l-51.904,23.553l-45.104-12.702h25.15V437.712z"/>
	<path fill="#EAA97D" d="M460.104,432.539c0,0-50.035-5.766-72.309,0.228l42.173,15.018l56.682-8.871l-21.44-2.709L460.104,432.539z
		"/>
	<path fill="#EAA97D" d="M70.58,325.64c0,0,30.875-38.01,100.387-17.877c5.582,1.616,35.441,23.561,73.87,32.209l16.332-5.616
		l-7.267,13.346l2.05,11.152l-18.52,7.542l-80.948-40l-64.41,13.578L70.58,325.64z"/>
	<path fill="#EAA97D" d="M350.015,359.114l-6.675-5.438h6.675v-5.975l-9.583-9.651l17.774,4.596c0,0,54.764-34.931,158.046-19.763
		l-8.647,14.248l-123.866,12.41L350.015,359.114z"/>
	<polygon fill="#EAA97D" points="261.168,573.568 285.458,579.331 295.485,584.041 315.837,585.854 334.864,583.173 
		357.322,576.455 332.479,595.369 307.653,598.616 291.031,597.459 256.385,576.455 	"/>
</g>
<g id="Livello_10">
	<path fill="#19110B" d="M49.656,398.995l-4.207-7.113l-2.006-31.841l-3.573-35.295c0,0-70.287-274.491,229.77-318.693l35.651-1.838
		l42.027,1.226c0,0,197.6,10.421,218.824,228.125l-0.511,49.967l-3.792,55.557l-5.188,59.453l-7.507,16.535l-4.092-30.848
		l-0.042-65.164c0,0,31.886-244.583-137.912-272.137c0,0-25.461,32.662-126.88,55.949v-4.902l20.216-29.416l-90.524,30.641
		l8.088-47.187c0,0-93.313,7.57-139.399,100.33c0,0-14.671,53.021-20.013,188.092l-1.742,60.386L49.656,398.995z"/>
</g>
<g id="Livello_5">
	<path fill="#3F5428" d="M172.503,377.701c12.61,0,22.832,10.238,22.832,22.867c0,6.237-2.906,13.5-6.948,17.626l-31.479-1.888
		c-4.859-4.194-7.239-8.811-7.239-15.739C149.67,387.938,159.894,377.701,172.503,377.701z"/>
	<path opacity="0.3" fill="#321C0F" d="M512.961,623.954l-12.869,2.276l-31.188,55.238l-0.881-48.783
		c0,0-11.658-16.105-23.586-19.169c-14.452-3.712-45.588,3.872-59.732,0.991c-8.499-1.728-24.797-12.099-33.548-12.826
		c-4.752-0.395-14.702,4.009-14.702,4.009l-43.17,1.035c0,0-15.667-8.163-21.312-4.396c-13.373,8.925-20.533,17.464-20.533,17.464
		l-80.277,23.595L157.6,683.057l-4.241-2.419L134,631.134l-16.163,2.812l-16.191-26.36l-16.178-31.131l-3.733,3.813l-20.098-51.632
		l9.712,78.949l47.606,107.282l13.234,24.312l15.626,23.777l21.766,32.433l43.94,39.162l29.529,14.129l35.618,12.269l22.087,3.011
		l18.762,0.279l26.116-5.663l36.12-12.579l33.865-17.889l34.662-35.093l27.741-41.24l14.166-24.888l52.729-182.627L512.961,623.954z
		 M311.049,774.248l-50.564,8.818l11.292-30.602l24.123-12.966l-2.615-6.223l32.898,2.074l-4.377,4.148l41.333,17.634l4.699,23.859
		L311.049,774.248z M407.288,719.536c-8.159-3.238-1.54-14.78-22.637-17.157c-35.331-3.979-129.368-9.61-161.125,6.531
		c-9.586,4.873-12.638,17.133-12.638,17.133s-16.318,0.349-21.36-9.619c-6.997-13.828,2.49-50.378,2.49-50.378l42.287-11.081
		l46.061-0.678c0,0,24.276-9.03,30.684-9.437c5.747-0.364,54.609,1.261,54.609,1.261l61.387-8.262l11.566,4.667
		c0,0,8.57,36.221-14.385,65.351C418.325,715.356,414.473,722.389,407.288,719.536z"/>
	<ellipse cx="172.773" cy="399.737" rx="17.446" ry="17.629"/>
	<path opacity="0.8" fill="#19110B" d="M495.2,650.456L471.448,694.9l-8.958,3.565l-1.212-61.816c0,0-10.618-20.332-21.596-23.133
		c-14.761-3.769-51.085,1.089-66.271,0c-7.659-0.549-14.92-11.675-24.441-12.106c-3.308-0.149-30.129,6.396-37.201,6.176
		c-8.835-0.275-34.578-6.547-38.396-3.163c-10.266,9.094-21.933,19.509-21.933,19.509l-75.595,14.555l-20.85,64.867l-24.107-52.897
		l-15.103,4.396l-11.283-27.117l-41.845-68.461l7.922,40.354l29.332,79.955l27.369,51.59l22.253,34.262l20.428,27.903l36.765,37.451
		l36.325,17.894l25.165,9.704l25.894,5.985l29.721-0.834l32.979-8.396l33.539-12.295l34.903-22.433l33.651-38.871l38.627-69.719
		l12.563-25.963L540.095,569.8l-20.45,60.805L495.2,650.456z M415.536,736.539c0,0-17.18-25.813-29.037-27.895
		c-35.904-6.302-110.163-14.721-143.203,5.447c-9.117,5.564-24.894,34.703-24.894,34.703l-40.327-36.971l9.762-49.062l48.687-7.83
		l43.848-4.476c0,0,20.805-6.725,28.008-7.68c7.604-1.009,30.684,0.115,30.684,0.115l34.347-1.091l56.558-10.953l20.018,9.334
		l-15.011,74.687L415.536,736.539z"/>
	<ellipse fill="#FFFFFF" cx="165.274" cy="395.541" rx="8.365" ry="8.454"/>
	<ellipse fill="#FFFFFF" cx="170.594" cy="408.6" rx="3.046" ry="3.078"/>
	<path opacity="0.9" fill="#19110B" d="M77.461,356.415c0,0-6.38-18.93-0.611-24.938c13.017-13.559,27.181-18.546,45.874-22.245
		c8.315-1.645,25.809-2.254,33.966,0c12.936,3.575,27.138,20.083,59.324,28.396c11.057,2.857,21.792,4.21,28.824,7.774
		c7.463,3.783,9.065,8.173,9.065,8.173s-3.412,0.316-32.163,6.054c-33.901,6.765-83.348-26.272-99.43-22.391
		c-13.173,3.178-19.962,13.67-33.431,15.37C84.948,353.105,77.461,356.415,77.461,356.415z"/>
	<path opacity="0.9" fill="#19110B" d="M353.845,349.998c0,0,28.662-18.312,58.77-22.427c10.939-1.496,61.524-13.268,100.596-1.71
		c10.31,3.049,12.312,26.077,12.312,26.077s-6.115,7.884-13.525,4.574c-14.381-6.422-20.729-22.373-92.604-2.028
		c-24.476,6.928-31.166,6.064-51.755,4.363C353.732,357.697,353.845,349.998,353.845,349.998z"/>
	<ellipse opacity="0.9" fill="#19110B" cx="187.838" cy="613.517" rx="4.18" ry="4.225"/>
	<path opacity="0.7" fill="#19110B" d="M95.939,675.758l78.63,104.461l94.904,52.126l-7.314-30.343l49.275-11.27l51.582,10.882
		l-9.172,30.73l34.58-4.669l56.012-46.68l56.011-83.242c0,0-40.343,155.595-192.105,166.39
		C308.342,864.144,193.253,879.843,95.939,675.758z"/>
	<path opacity="0.7" fill="#19110B" d="M263.298,714.464l-11.858,16.525l18.199,2.293l21.778,11.224h16.963h25.159l20.719-11.224
		l15.517,4.871l10.46-14.794l-20.215-9.418c0,0-33.605-6.335-48.252-6.36C296.45,707.557,263.298,714.464,263.298,714.464z"/>
</g>
<g id="Livello_3">
	<path fill="none" stroke="#000000" stroke-width="6.9654" stroke-miterlimit="10" d="M132.167,739.139l-8.128,110.371
		c0,0,39.264,92.186,184.453,92.186c143.962,0,182.775-75.848,182.775-75.848l-6.052-126.709"/>
	<path fill="none" stroke="#000000" stroke-width="7.5772" stroke-miterlimit="10" d="M308.342,864.144
		c-43.146,0.383-102.47-24.54-138.38-70.807c-71.679-92.349-98.583-166.928-114.08-311.171c-1.93-17.966,1.481-91.755,1.977-109.654
		c1.355-49.008,0.437-51.199,3.779-145.029C67.192,71.544,218.403,50.789,218.403,50.789l-7.873,47.799
		c0,0,53.371-13.425,91.497-32.013"/>
	<path fill="none" stroke="#000000" stroke-width="7.5772" stroke-miterlimit="10" d="M300.052,66.575l-22.946,37.528
		c0,0,57.176-17.357,60.891-18.618c50.429-17.115,68.293-39.139,68.293-39.139l23.065,8.692
		c123.99,39.978,115.562,162.444,115.562,232.485c0,57.768,0.708,49.117,0.135,96.706c-0.256,21.247,8.688,78.517,6.541,106.585
		c-9.037,118.252-60.325,248.324-91.149,288.518c-43.702,56.984-104.785,79.444-140.926,84.908
		c-2.812,0.424-15.642-0.309-18.762-0.279"/>
	<g>
		<path d="M104.502,411.283c0,0,0.163-0.603,0.468-1.732c0.331-1.12,0.778-2.78,1.457-4.854c0.677-2.074,1.479-4.606,2.578-7.454
			c0.542-1.428,1.137-2.944,1.816-4.537c0.679-1.602,1.45-3.244,2.481-4.991c0.265-0.438,0.54-0.88,0.888-1.345
			c0.329-0.452,0.752-0.964,1.408-1.485c0.379-0.301,0.761-0.605,1.147-0.913c0.408-0.31,0.908-0.635,1.369-0.954
			c1.854-1.233,3.839-2.218,5.951-3.098c4.223-1.716,8.847-2.821,13.612-3.523c4.769-0.709,9.697-1.035,14.66-1.134
			c4.966-0.125,9.972,0.015,14.93,0.147c2.463,0.082,4.926,0.163,7.379,0.244c2.454,0.05,4.898,0.099,7.324,0.148l1.825,0.042
			c0.61,0.018,1.268,0.066,1.896,0.108c1.268,0.093,2.542,0.155,3.765,0.311c2.466,0.243,4.897,0.592,7.269,1.049
			c4.748,0.892,9.264,2.21,13.388,3.859c4.129,1.641,7.839,3.659,11.051,5.807c3.224,2.137,5.895,4.483,8.067,6.714
			c2.197,2.212,3.815,4.401,5.042,6.243c1.238,1.839,2.001,3.406,2.494,4.473c0.485,1.074,0.664,1.675,0.664,1.675
			s-0.333-0.531-1.035-1.454c-0.69-0.931-1.802-2.22-3.288-3.755c-1.496-1.529-3.431-3.254-5.782-5.021
			c-2.362-1.754-5.169-3.508-8.354-5.144c-3.206-1.603-6.821-3.011-10.733-4.178c-3.915-1.165-8.144-2.038-12.571-2.607
			c-2.216-0.268-4.477-0.491-6.778-0.617c-1.155-0.096-2.287-0.095-3.433-0.13c-0.579-0.007-1.131-0.047-1.734-0.046l-1.826,0.007
			l-1.833,0.007l-1.812,0.027c-1.257,0.015-2.511,0.012-3.761-0.012c-2.481-0.059-4.971-0.118-7.462-0.177
			c-4.947-0.177-9.851-0.334-14.641-0.384c-2.395-0.006-4.763-0.009-7.089,0.055c-2.326,0.072-4.61,0.196-6.841,0.372
			c-4.456,0.385-8.695,1.048-12.505,2.183c-1.895,0.562-3.698,1.29-5.312,2.062c-0.391,0.206-0.759,0.367-1.17,0.603
			c-0.421,0.256-0.839,0.51-1.253,0.761c-0.117,0.06-0.365,0.241-0.626,0.531c-0.258,0.264-0.524,0.592-0.781,0.921
			c-1.041,1.341-1.95,2.849-2.84,4.247c-0.877,1.415-1.679,2.794-2.418,4.101c-1.458,2.624-2.758,4.92-3.783,6.833
			C105.69,409.096,104.502,411.283,104.502,411.283z"/>
	</g>
	<g>
		<path d="M244.836,582.613c0.877-0.673,1.774-1.309,2.663-1.96c0.885-0.657,1.797-1.265,2.695-1.899
			c1.797-1.266,3.612-2.498,5.437-3.712l0.704-0.468l0.996,0.589l12.207,7.222c4.067,2.384,8.146,4.729,12.229,6.932
			c2.048,1.082,4.094,2.142,6.124,3.058c1.011,0.458,2.031,0.87,2.979,1.198c0.483,0.179,0.929,0.299,1.35,0.408
			c0.635,0.162,1.019,0.226,1.513,0.318c2.078,0.358,4.333,0.533,6.589,0.669c2.267,0.117,4.562,0.146,6.859,0.12
			c2.299-0.013,4.604-0.093,6.899-0.232c2.295-0.15,4.588-0.315,6.85-0.587c2.261-0.267,4.501-0.61,6.634-1.065
			c1.058-0.235,2.093-0.505,3.02-0.824l0.621-0.227c0.26-0.111,0.589-0.244,0.752-0.324c0.369-0.158,0.872-0.409,1.34-0.656
			c1.904-1.023,3.857-2.267,5.791-3.529c1.928-1.286,3.874-2.593,5.793-3.948c3.856-2.688,7.725-5.441,11.589-8.184l0.511-0.363
			l0.343,0.034c1.753,0.176,3.505,0.389,5.258,0.581c0.876,0.091,1.753,0.215,2.629,0.328s1.753,0.229,2.629,0.364
			c-0.876,0.136-1.753,0.251-2.629,0.364s-1.753,0.237-2.629,0.328c-1.753,0.192-3.505,0.405-5.258,0.581l0.854-0.329
			c-3.205,3.586-6.55,7-10.061,10.291c-1.77,1.627-3.553,3.254-5.437,4.794c-1.877,1.557-3.802,3.061-5.978,4.461
			c-0.554,0.353-1.085,0.686-1.776,1.058c-0.358,0.203-0.577,0.299-0.855,0.439c-0.423,0.204-0.678,0.291-1.026,0.441
			c-1.295,0.513-2.545,0.891-3.789,1.228c-2.479,0.663-4.924,1.104-7.366,1.453c-4.88,0.719-9.743,1.013-14.632,1.098
			c-2.446,0.016-4.896-0.043-7.367-0.189c-2.478-0.156-4.955-0.411-7.542-0.929c-0.669-0.138-1.447-0.318-1.956-0.466
			c-0.723-0.203-1.413-0.431-2.036-0.68c-1.28-0.486-2.424-1.054-3.549-1.627c-2.239-1.153-4.349-2.389-6.399-3.694
			c-4.107-2.588-8.008-5.384-11.828-8.273c-3.811-2.906-7.526-5.895-11.14-9.057l1.7,0.121c-2.024,0.839-4.059,1.659-6.112,2.446
			c-1.027,0.392-2.04,0.811-3.079,1.18C246.912,581.869,245.884,582.26,244.836,582.613z"/>
	</g>
	<g>
		<path d="M227.141,661.983c0,0,2.918-0.156,8.025-0.431c5.098-0.249,12.381-0.604,21.122-1.029
			c4.365-0.195,9.092-0.411,14.087-0.703c2.497-0.123,5.062-0.249,7.683-0.378c2.621-0.135,5.297-0.275,8.016-0.458
			c5.439-0.346,11.057-0.629,16.751-1.056c5.695-0.435,11.467-0.914,17.23-1.407c2.873-0.302,5.753-0.568,8.607-0.896
			c2.849-0.363,5.687-0.727,8.503-1.087c5.691-0.775,11.294-1.496,16.715-2.164c5.423-0.632,10.666-1.242,15.637-1.821
			c4.96-0.565,9.648-1.1,13.977-1.594c4.312-0.524,8.24-1.067,11.701-1.658c3.461-0.59,6.448-1.285,8.926-1.884
			c1.236-0.302,2.337-0.598,3.297-0.855c0.963-0.252,1.782-0.467,2.447-0.641c1.332-0.347,2.043-0.532,2.043-0.532
			s-0.646,0.352-1.855,1.011c-1.216,0.648-2.997,1.603-5.344,2.68c-2.336,1.092-5.238,2.356-8.677,3.49
			c-3.43,1.162-7.36,2.242-11.657,3.28c-4.298,1.026-8.969,1.992-13.911,2.944c-2.474,0.452-5.015,0.916-7.612,1.39
			c-2.6,0.438-5.256,0.883-7.958,1.337c-2.704,0.422-5.454,0.851-8.238,1.285c-2.784,0.404-5.604,0.814-8.444,1.228
			c-2.863,0.388-5.788,0.712-8.703,1.072c-2.92,0.316-5.851,0.57-8.781,0.857c-2.931,0.258-5.861,0.451-8.78,0.677
			c-2.921,0.178-5.83,0.277-8.716,0.418c-2.885,0.145-5.746,0.194-8.573,0.294c-2.827,0.107-5.618,0.136-8.365,0.146
			c-2.747,0.028-5.446,0.017-8.087,0.003c-2.642-0.008-5.226-0.017-7.74-0.069c-5.03-0.114-9.782-0.283-14.167-0.443
			c-4.385-0.197-8.401-0.442-11.959-0.654c-3.558-0.235-6.657-0.494-9.209-0.701c-5.102-0.448-8.013-0.799-8.013-0.798
			L227.141,661.983z"/>
	</g>
	<g>
		<path fill="none" d="M427.046,662.409"/>
	</g>
	<g>
		<path fill="none" d="M388.227,650.456"/>
	</g>
	<path fill="none" stroke="#000000" stroke-width="7.5772" stroke-miterlimit="10" d="M55.022,408.155
		c0,0-17.077-35.159-22.307-21.066c-13.786,37.146-10.32,56.557-10.32,56.557s-7.713,86.789,45.125,132.81"/>
	<path fill="none" stroke="#000000" stroke-width="7.5772" stroke-miterlimit="10" d="M547.487,418.979
		c0,0,12.928-32.57,24.115-33.66c3.945-0.385,12.76,16.39,12.93,23.844c1.245,54.087-16.017,146.571-45.449,167.292"/>
	<path fill="none" stroke="#000000" stroke-width="7.5772" stroke-miterlimit="10" d="M45.449,391.882
		c-3.819-74.024-4.348-19.564-8.729-114.235C25.114,26.888,243.627,10.188,290.963,4.214
		c25.645-3.236,279.425,5.856,275.125,251.762c-1.141,65.187-9.438,142.565-9.438,142.565"/>
	<g>
		<path d="M104.502,375.415c0,0,0.325-0.359,0.933-1.033c0.649-0.634,1.616-1.599,3.047-2.549c1.414-0.975,3.244-2.022,5.471-2.926
			c2.22-0.918,4.814-1.74,7.698-2.363c2.881-0.639,6.043-1.128,9.401-1.408c3.357-0.293,6.908-0.435,10.573-0.369
			c3.664,0.065,7.449,0.21,11.271,0.586c3.823,0.363,7.692,0.847,11.545,1.429c3.847,0.62,7.672,1.353,11.419,2.157
			c3.751,0.783,7.398,1.752,10.918,2.708c3.52,0.96,6.882,2.037,10.047,3.124c3.169,1.073,6.124,2.217,8.812,3.368
			c5.384,2.276,9.705,4.633,12.439,6.726c1.376,1.029,2.324,2.026,2.841,2.791c0.248,0.388,0.427,0.694,0.491,0.925
			c0.078,0.222,0.118,0.336,0.118,0.336s-0.057-0.107-0.167-0.313c-0.094-0.211-0.315-0.484-0.606-0.817
			c-0.6-0.664-1.665-1.443-3.104-2.28c-2.89-1.674-7.346-3.472-12.797-5.287c-2.729-0.903-5.717-1.79-8.887-2.688
			c-3.174-0.886-6.547-1.727-10.039-2.582c-3.494-0.848-7.137-1.581-10.83-2.351c-3.697-0.75-7.471-1.421-11.257-1.995
			c-3.779-0.616-7.573-1.135-11.316-1.535c-3.744-0.384-7.43-0.74-11.005-0.903c-3.574-0.155-7.031-0.254-10.302-0.155
			c-3.269,0.109-6.354,0.327-9.176,0.711c-2.819,0.397-5.38,0.919-7.598,1.575c-2.213,0.663-4.09,1.423-5.568,2.193
			c-0.751,0.367-1.372,0.778-1.939,1.102c-0.537,0.359-0.992,0.676-1.359,0.942C104.877,375.108,104.502,375.415,104.502,375.415z"
			/>
	</g>
	<path fill="#FFFFFF" d="M500.766,411.283l-12.459-27.16l-23.405-4.044l-45.688-1.017l-23.911,5.061l-27.466,20.706
		c0,0,14.9,16.524,66.016,12.586c33.866-2.609,56.284-1.997,56.284-1.997L500.766,411.283z"/>
	<path fill="#3F5428" d="M432.582,378.394c12.316-1.484,23.505,7.312,24.991,19.645c0.734,6.091-1.249,13.527-4.711,18.032
		l-30.965,1.861c-5.239-3.523-8.108-7.752-8.924-14.518C411.488,391.081,420.268,379.878,432.582,378.394z"/>
	<ellipse transform="matrix(0.9928 -0.1197 0.1197 0.9928 -44.725 54.9831)" cx="435.441" cy="399.884" rx="17.161" ry="17.342"/>
	
		<ellipse transform="matrix(0.9928 -0.1197 0.1197 0.9928 -44.39 54.0157)" fill="#FFFFFF" cx="427.624" cy="396.669" rx="8.229" ry="8.316"/>
	
		<ellipse transform="matrix(0.9928 -0.1197 0.1197 0.9928 -45.8034 54.9228)" fill="#FFFFFF" cx="434.356" cy="408.796" rx="2.997" ry="3.028"/>
	<g>
		<path d="M500.766,411.283c0,0-1.188-2.187-3.267-6.014c-1.025-1.914-2.326-4.209-3.783-6.833
			c-0.739-1.306-1.541-2.686-2.418-4.101c-0.89-1.398-1.799-2.906-2.84-4.247c-0.257-0.33-0.523-0.657-0.781-0.921
			c-0.262-0.289-0.509-0.471-0.626-0.53c-0.414-0.251-0.832-0.505-1.253-0.761c-0.411-0.236-0.779-0.396-1.171-0.603
			c-1.614-0.772-3.417-1.5-5.312-2.062c-3.81-1.135-8.05-1.798-12.505-2.183c-2.231-0.176-4.517-0.3-6.842-0.372
			c-2.326-0.064-4.694-0.061-7.089-0.055c-4.79,0.05-9.694,0.207-14.642,0.384c-2.49,0.06-4.98,0.119-7.461,0.177
			c-1.251,0.024-2.504,0.027-3.761,0.012l-1.812-0.027l-1.833-0.007l-1.826-0.007c-0.604-0.001-1.155,0.039-1.734,0.046
			c-1.146,0.035-2.277,0.034-3.433,0.13c-2.301,0.125-4.562,0.349-6.778,0.617c-4.427,0.569-8.656,1.442-12.57,2.607
			c-3.912,1.167-7.528,2.576-10.733,4.179c-3.184,1.635-5.991,3.39-8.354,5.144c-2.352,1.766-4.286,3.491-5.782,5.02
			c-1.486,1.536-2.598,2.825-3.288,3.755c-0.702,0.923-1.035,1.454-1.035,1.454s0.179-0.601,0.663-1.675
			c0.493-1.067,1.257-2.634,2.494-4.473c1.227-1.842,2.845-4.031,5.042-6.243c2.172-2.23,4.844-4.577,8.067-6.713
			c3.212-2.147,6.922-4.166,11.051-5.807c4.123-1.65,8.64-2.968,13.388-3.86c2.371-0.457,4.802-0.806,7.269-1.049
			c1.224-0.156,2.497-0.218,3.765-0.311c0.629-0.042,1.286-0.09,1.897-0.108l1.824-0.042c2.426-0.049,4.87-0.099,7.324-0.148
			c2.453-0.081,4.916-0.163,7.379-0.244c4.958-0.133,9.964-0.272,14.93-0.147c4.963,0.099,9.892,0.425,14.66,1.133
			c4.766,0.703,9.39,1.807,13.613,3.523c2.111,0.879,4.096,1.864,5.95,3.097c0.462,0.32,0.962,0.644,1.369,0.954
			c0.386,0.307,0.769,0.611,1.147,0.913c0.656,0.521,1.079,1.033,1.408,1.485c0.348,0.465,0.623,0.906,0.888,1.345
			c1.03,1.747,1.802,3.389,2.48,4.991c0.68,1.594,1.274,3.109,1.816,4.537c1.099,2.848,1.901,5.38,2.578,7.454
			c0.68,2.073,1.127,3.733,1.458,4.854C500.603,410.68,500.766,411.283,500.766,411.283z"/>
	</g>
	<g>
		<path d="M500.766,375.415c0,0-0.375-0.307-1.077-0.882c-0.367-0.267-0.822-0.583-1.359-0.942
			c-0.567-0.324-1.188-0.735-1.938-1.102c-1.478-0.771-3.354-1.531-5.568-2.193c-2.218-0.655-4.779-1.177-7.598-1.575
			c-2.822-0.384-5.907-0.603-9.176-0.711c-3.271-0.1-6.729,0-10.302,0.155c-3.575,0.163-7.262,0.519-11.005,0.903
			c-3.743,0.4-7.537,0.919-11.316,1.535c-3.786,0.574-7.56,1.244-11.257,1.995c-3.693,0.77-7.336,1.502-10.83,2.351
			c-3.49,0.854-6.864,1.695-10.038,2.582c-3.171,0.899-6.158,1.786-8.888,2.688c-5.451,1.815-9.907,3.613-12.797,5.287
			c-1.439,0.838-2.505,1.617-3.104,2.281c-0.291,0.333-0.513,0.605-0.606,0.817c-0.11,0.207-0.167,0.313-0.167,0.313
			s0.04-0.114,0.118-0.336c0.063-0.23,0.242-0.537,0.49-0.925c0.518-0.765,1.466-1.762,2.842-2.791
			c2.734-2.092,7.056-4.45,12.439-6.726c2.689-1.15,5.644-2.294,8.812-3.368c3.165-1.087,6.527-2.164,10.047-3.123
			c3.521-0.957,7.168-1.926,10.919-2.709c3.747-0.804,7.572-1.537,11.419-2.157c3.853-0.582,7.722-1.065,11.545-1.429
			c3.822-0.376,7.607-0.521,11.271-0.586c3.665-0.065,7.216,0.076,10.573,0.369c3.358,0.28,6.521,0.769,9.401,1.408
			c2.884,0.623,5.479,1.444,7.698,2.363c2.227,0.904,4.057,1.951,5.471,2.926c1.432,0.95,2.397,1.915,3.048,2.549
			C500.441,375.056,500.766,375.415,500.766,375.415z"/>
	</g>
</g>
<g id="Livello_8">
	<path d="M608.971,904.052c0,0-150.067,74.983-300.629,74.983C115.954,979.035,0,893.553,0,893.553l120.436-44.804
		c0,0,66.658,63.665,186.56,64.357c130.192,0.753,185.012-65.609,185.012-65.609L608.971,904.052z"/>
</g>
<g id="Livello_11">
	<path opacity="0.2" d="M107.845,403.995c0,0,8.993-14.183,13.549-15.641c26.168-8.373,83.674-5.81,114.869,15.641
		c0,0-13.668-24.097-46.682-24.187s-52.271,0-52.271,0l-15.916,3.549C121.395,383.357,113.461,384.174,107.845,403.995z"/>
	<path opacity="0.2" d="M497.51,403.995c0,0-8.993-14.183-13.55-15.641c-26.168-8.373-83.674-5.81-114.869,15.641
		c0,0,13.669-24.097,46.683-24.187s52.271,0,52.271,0l15.916,3.549C483.96,383.357,491.894,384.174,497.51,403.995z"/>
</g>
</svg>
